<svg width="24" height="24" viewBox="0 0 24 24" fill="none" xmlns="http://www.w3.org/2000/svg">
<g clip-path="url(#clip0_396_382)">
<path d="M17.1768 4.82322L17.1036 4.75H17H3C1.76274 4.75 0.75 5.75112 0.75 7V16V16.25H1H2.75952C2.88733 17.9219 4.286 19.25 6 19.25C7.714 19.25 9.11267 17.9219 9.24048 16.25H14.2595C14.3873 17.9219 15.786 19.25 17.5 19.25C19.214 19.25 20.6127 17.9219 20.7405 16.25H23H23.25V16V11V10.8964L23.1768 10.8232L17.1768 4.82322ZM3.25 10.75V7.25H6.75V10.75H3.25ZM6 17.25C5.30807 17.25 4.75 16.6919 4.75 16C4.75 15.3081 5.30807 14.75 6 14.75C6.69193 14.75 7.25 15.3081 7.25 16C7.25 16.6919 6.69193 17.25 6 17.25ZM12.75 10.75H9.25V7.25H12.75V10.75ZM17.5 17.25C16.8081 17.25 16.25 16.6919 16.25 16C16.25 15.3081 16.8081 14.75 17.5 14.75C18.1919 14.75 18.75 15.3081 18.75 16C18.75 16.6919 18.1919 17.25 17.5 17.25ZM15.25 10.75V7.25H15.8964L19.3964 10.75H15.25Z" fill="black" stroke="white" stroke-width="0.5"/>
</g>
<defs>
<clipPath id="clip0_396_382">
<rect width="24" height="24" fill="white"/>
</clipPath>
</defs>
</svg>
