<svg width="40" height="40" viewBox="0 0 40 40" fill="none" xmlns="http://www.w3.org/2000/svg">
<path d="M15.815 0.00500021L17.03 0H22.97L24.1867 0.00500021L25.71 0.0216676L26.4317 0.0333347L27.1283 0.0516688L27.8 0.0750031L28.4467 0.101671L29.07 0.136672L29.67 0.178341L30.245 0.228343L30.8 0.283345C33.7 0.610025 35.6883 1.31005 37.1883 2.81012C38.6883 4.31018 39.3883 6.29693 39.715 9.19872L39.7717 9.75374L39.82 10.3304L39.8617 10.9305L39.895 11.5521L39.9367 12.5322L39.9567 13.2156L39.9783 14.2889L39.9933 15.814L40 17.4474L39.9983 22.9693L39.9933 24.186L39.9767 25.7094L39.965 26.4311L39.9467 27.1278L39.9233 27.7995L39.8967 28.4462L39.8617 29.0695L39.82 29.6696L39.77 30.2446L39.715 30.7996C39.3883 33.6997 38.6883 35.6882 37.1883 37.1882C35.6883 38.6883 33.7017 39.3883 30.8 39.715L30.245 39.7717L29.6683 39.82L29.0683 39.8617L28.4467 39.895L27.4667 39.9367L26.7833 39.9567L25.71 39.9783L24.185 39.9933L22.5517 40L17.03 39.9983L15.8133 39.9933L14.29 39.9767L13.5683 39.965L12.8717 39.9467L12.2 39.9233L11.5533 39.8967L10.93 39.8617L10.33 39.82L9.755 39.77L9.2 39.715C6.3 39.3883 4.31167 38.6883 2.81167 37.1882C1.31167 35.6882 0.611667 33.7014 0.285 30.7996L0.228333 30.2446L0.18 29.6679L0.138333 29.0679L0.105 28.4462L0.0633333 27.4661L0.0433333 26.7828L0.0216667 25.7094L0.00666667 24.1843L0 22.5509L0.00166667 17.029L0.00666667 15.8123L0.0233333 14.2889L0.035 13.5672L0.0533333 12.8705L0.0766667 12.1988L0.103333 11.5521L0.138333 10.9288L0.18 10.3288L0.23 9.75374L0.285 9.19872C0.611667 6.2986 1.31167 4.31018 2.81167 2.81012C4.31167 1.31005 6.29833 0.610025 9.2 0.283345L9.755 0.226676L10.3317 0.178341L10.9317 0.136672L11.5533 0.103338L12.5333 0.0616692L13.2167 0.0416684L14.29 0.0200008L15.815 0.00500021ZM11.3167 12.1655H6.75C6.96667 22.5659 12.1667 28.8162 21.2833 28.8162H21.8V22.866C25.15 23.1993 27.6833 25.6494 28.7 28.8162H33.4333C32.1333 24.0827 28.7167 21.4659 26.5833 20.4659C28.7167 19.2325 31.7167 16.2323 32.4333 12.1655H28.1333C27.2 15.4656 24.4333 18.4658 21.8 18.7491V12.1655H17.5V23.6993C14.8333 23.0326 11.4667 19.7992 11.3167 12.1655Z" fill="#451B66"/>
</svg>
