<svg width="40" height="40" viewBox="0 0 40 40" fill="none" xmlns="http://www.w3.org/2000/svg">
<path d="M29.1635 23.97C28.6661 23.7217 26.2195 22.525 25.764 22.3584C25.3068 22.1934 24.9752 22.1117 24.642 22.6084C24.3121 23.1034 23.3576 24.2184 23.0679 24.5484C22.7781 24.88 22.4868 24.92 21.9894 24.6734C21.492 24.4234 19.8878 23.9017 17.9871 22.215C16.5084 20.9017 15.5086 19.28 15.2189 18.7834C14.9292 18.2884 15.1888 18.02 15.4366 17.7734C15.661 17.5517 15.9357 17.195 16.1835 16.9067C16.433 16.6167 16.5151 16.41 16.6825 16.0784C16.8483 15.7484 16.7663 15.46 16.6407 15.2117C16.5151 14.9634 15.5204 12.525 15.1067 11.5334C14.7015 10.5684 14.2912 10.7001 13.9864 10.6834C13.6967 10.6701 13.3651 10.6667 13.0319 10.6667C12.7003 10.6667 12.1611 10.7901 11.7056 11.2867C11.2501 11.7817 9.96397 12.98 9.96397 15.4184C9.96397 17.855 11.7474 20.21 11.9953 20.5417C12.2448 20.8717 15.5053 25.875 20.4973 28.02C21.6846 28.53 22.6107 28.835 23.3341 29.0617C24.5264 29.44 25.6116 29.3867 26.4673 29.2584C27.4235 29.1167 29.4113 28.06 29.8266 26.9034C30.2419 25.7467 30.2419 24.755 30.1163 24.5484C29.9924 24.3417 29.6625 24.2184 29.1635 23.97ZM20.0837 36.3083H20.077C17.1125 36.3086 14.2026 35.5153 11.652 34.0117L11.0474 33.655L4.78271 35.2917L6.45397 29.2117L6.06044 28.5884C4.4033 25.9621 3.52664 22.9228 3.53177 19.8217C3.53344 10.7384 10.9604 3.3484 20.0904 3.3484C24.5114 3.3484 28.6678 5.06506 31.7926 8.17839C33.3344 9.70608 34.5564 11.5229 35.388 13.5238C36.2196 15.5246 36.6442 17.6698 36.6373 19.835C36.6323 28.9184 29.207 36.3083 20.0837 36.3083ZM34.1722 5.81339C32.3271 3.96493 30.1318 2.49929 27.7134 1.5014C25.295 0.503507 22.7017 -0.00679373 20.0837 6.82958e-05C9.10657 6.82958e-05 0.172486 8.89172 0.167462 19.82C0.167462 23.3134 1.08348 26.7234 2.82675 29.7284L0 40L10.5585 37.2433C13.4783 38.8265 16.7503 39.6562 20.0753 39.6567H20.0837C31.0591 39.6567 39.9949 30.765 39.9999 19.835C40.008 17.2305 39.4971 14.6502 38.4968 12.2434C37.4965 9.83666 36.0266 7.65117 34.1722 5.81339Z" fill="#451B66"/>
</svg>
